[img]http://briefcase.pathfinder.gr/download/540731/numberone.gif[/img]
[img]http://briefcase.pathfinder.gr/download/538827/seed.gif[/img]

[img]http://www.33smiley.com/smiley5/work/5.gif[/img]

[img]http://ecx.images-amazon.com/images/I/514GJ4C1R0L.jpg[/img]

IMDB Link:http://www.imdb.com/title/tt0307466/

Plot:Retired cop Eddie Burns gave 15 years and the use of his left arm to the Reno homicide squad. When his wayward sister, Kassie, goes missing Eddie Burns finds himself subjected to a fiendish and ingenious campaign of revenge by the mysterious Charlie Strom. In order to protect his sister, Eddie - disabled, betrayed and alone - journeys into the heart of his own darkness: where he discovers that the reason for his ordeal lies in his own past sins and those of his adversary Charlie Strom.

[IMG]http://i981.photobucket.com/albums/ae294/fasamoo/Sin2003DVDRipGoGo_20100520-02094297.jpg[/IMG]
[IMG]http://i981.photobucket.com/albums/ae294/fasamoo/Sin2003DVDRipGoGo_20100520-02151991.jpg[/IMG]
[IMG]http://i981.photobucket.com/albums/ae294/fasamoo/Sin2003DVDRipGoGo_20100520-02162306.jpg[/IMG]
[IMG]http://i981.photobucket.com/albums/ae294/fasamoo/Sin2003DVDRipGoGo_20100520-02193658.jpg[/IMG]
[IMG]http://i981.photobucket.com/albums/ae294/fasamoo/Sin2003DVDRipGoGo_20100520-02214836.jpg[/IMG]
[IMG]http://i981.photobucket.com/albums/ae294/fasamoo/Sin2003DVDRipGoGo_20100520-02233253.jpg[/IMG]


General
Complete name                    : Sin 2003 DVDRip GoGoSin 2003 DVDRip GoGo.avi
Format                           : AVI
Format/Info                      : Audio Video Interleave
File size                        : 700 MiB
Duration                         : 1h 47mn
Overall bit rate                 : 913 Kbps
Writing application              : VirtualDubMod 1.5.4.1 (build 2178/release)
Writing library                  : VirtualDubMod build 2178/release

Video
ID                               : 0
Format                           : MPEG-4 Visual
Format profile                   : Advanced Simple@L5
Format settings, BVOP            : Yes
Format settings, QPel            : No
Format settings, GMC             : No warppoints
Format settings, Matrix          : Custom
Codec ID                         : XVID
Codec ID/Hint                    : XviD
Duration                         : 1h 47mn
Bit rate                         : 787 Kbps
Width                            : 608 pixels
Height                           : 304 pixels
Display aspect ratio             : 2.000
Frame rate                       : 23.976 fps
Resolution                       : 8 bits
Colorimetry                      : 4:2:0
Scan type                        : Progressive
Bits/(Pixel*Frame)               : 0.178
Stream size                      : 604 MiB (86%)
Writing library                  : XviD 1.2.1 (UTC 2008-12-04)

Audio
ID                               : 1
Format                           : MPEG Audio
Format version                   : Version 1
Format profile                   : Layer 3
Mode                             : Joint stereo
Format_Settings_ModeExtension    : MS Stereo
Codec ID                         : 55
Codec ID/Hint                    : MP3
Duration                         : 1h 47mn
Bit rate mode                    : Variable
Bit rate                         : 113 Kbps
Nominal bit rate                 : 128 Kbps
Channel(s)                       : 2 channels
Sampling rate                    : 48.0 KHz
Stream size                      : 86.9 MiB (12%)
Alignment                        : Aligned on interleaves
Interleave, duration             : 24 ms (0.58 video frame)
Interleave, preload duration     : 162 ms
Writing library                  : LAME3.98r
Encoding settings                : -m j -V 4 -q 2 -lowpass 17 --abr 128
Language                         : English
Subtitles                        : English,Francais,Espanol,Portugues,
                                   Chinese,Korean,Thai.(.IDX+*.SUB)
                                 : English.(.srt)
Genre                            : Crime | Drama | Thriller 
